<?xml version="1.0" standalone="no"?>
<!DOCTYPE svg PUBLIC "-//W3C//DTD SVG 20010904//EN"
 "http://www.w3.org/TR/2001/REC-SVG-20010904/DTD/svg10.dtd">
<svg version="1.0" xmlns="http://www.w3.org/2000/svg"
 width="250.000000pt" height="250.000000pt" viewBox="0 0 250.000000 250.000000"
 preserveAspectRatio="xMidYMid meet">

<g transform="translate(0.000000,250.000000) scale(0.100000,-0.100000)"
fill="#000000" stroke="none">
<path d="M0 1250 l0 -1250 1250 0 1250 0 0 1250 0 1250 -1250 0 -1250 0 0
-1250z m1960 655 c0 -3 -18 -35 -41 -70 l-41 -65 -756 0 c-689 0 -757 -1 -774
-17 -17 -15 -18 -46 -18 -582 0 -497 2 -569 16 -589 l15 -22 873 0 c665 0 875
3 884 12 9 9 12 135 12 506 l0 495 72 89 73 90 3 -601 c2 -589 2 -602 -18
-642 -12 -22 -35 -49 -53 -59 -31 -19 -56 -20 -972 -20 -920 0 -941 0 -973 20
-18 11 -41 34 -52 52 -19 32 -20 52 -20 661 0 669 -1 656 48 700 51 46 51 46
910 47 446 0 812 -2 812 -5z m468 -1706 c-5 -145 144 -129 -1200 -129 l-1149
0 -24 25 c-23 22 -25 32 -25 108 0 46 2 86 4 88 2 2 543 3 1201 1 l1197 -2 -4
-91z"/>
<path d="M961 202 c-7 -14 -6 -25 5 -40 15 -22 21 -22 264 -22 243 0 249 0
264 22 11 15 12 26 5 40 -9 17 -27 18 -269 18 -242 0 -260 -1 -269 -18z"/>
</g>
</svg>
